<?xml version="1.0" encoding="iso-8859-1"?>
<!-- Generator: Adobe Illustrator 19.0.0, SVG Export Plug-In . SVG Version: 6.00 Build 0)  -->
<svg version="1.1" id="Layer_1" xmlns="http://www.w3.org/2000/svg" xmlns:xlink="http://www.w3.org/1999/xlink" x="0px" y="0px"
	 viewBox="0 0 512 512" style="enable-background:new 0 0 512 512;" xml:space="preserve">
<circle style="fill:#61DAFB;" cx="256.001" cy="256.001" r="244.06"/>
<path d="M256,512c-68.38,0-132.667-26.629-181.02-74.981C26.629,388.667,0,324.38,0,256S26.629,123.333,74.98,74.98
	C123.333,26.629,187.62,0,256,0s132.667,26.629,181.02,74.98C485.371,123.333,512,187.62,512,256s-26.629,132.667-74.98,181.02
	C388.667,485.371,324.38,512,256,512z M256,23.883C128.01,23.883,23.883,128.01,23.883,256S128.01,488.117,256,488.117
	S488.117,383.99,488.117,256S383.99,23.883,256,23.883z"/>
<path d="M256,466.17c-6.594,0-11.941-5.347-11.941-11.941c0-6.594,5.347-11.941,11.941-11.941
	c55.527,0,107.004-25.127,141.235-68.939c1.435-1.835,2.852-3.722,4.208-5.609c3.855-5.35,11.315-6.568,16.669-2.712
	c5.351,3.855,6.567,11.317,2.712,16.669c-1.54,2.138-3.145,4.277-4.772,6.358C377.267,437.697,318.929,466.17,256,466.17z"/>
<path d="M433.306,345.728c-0.775,0-1.564-0.084-2.327-0.239c-0.765-0.155-1.518-0.381-2.233-0.679
	c-0.728-0.299-1.421-0.67-2.066-1.099c-0.657-0.43-1.266-0.931-1.815-1.481c-0.549-0.549-1.051-1.17-1.481-1.816
	c-0.43-0.646-0.8-1.349-1.099-2.065c-0.299-0.718-0.525-1.469-0.681-2.233c-0.155-0.764-0.239-1.552-0.239-2.329
	c0-0.775,0.084-1.564,0.239-2.341c0.155-0.752,0.382-1.505,0.681-2.233c0.299-0.717,0.669-1.409,1.099-2.054
	c0.43-0.657,0.931-1.266,1.481-1.816c0.549-0.549,1.158-1.051,1.815-1.493c0.645-0.429,1.337-0.8,2.066-1.099
	c0.716-0.299,1.468-0.524,2.233-0.679c3.881-0.776,8,0.49,10.771,3.271c0.549,0.551,1.051,1.16,1.493,1.816
	c0.43,0.645,0.8,1.337,1.099,2.054c0.299,0.728,0.525,1.481,0.681,2.233c0.155,0.776,0.226,1.566,0.226,2.341
	c0,0.776-0.072,1.566-0.226,2.329c-0.154,0.763-0.382,1.517-0.681,2.233c-0.299,0.716-0.669,1.42-1.099,2.065
	c-0.442,0.645-0.943,1.267-1.493,1.816c-0.549,0.549-1.158,1.051-1.815,1.481c-0.645,0.429-1.337,0.8-2.055,1.099
	c-0.727,0.299-1.481,0.524-2.233,0.679C434.871,345.643,434.083,345.728,433.306,345.728z"/>
<circle style="fill:#F3CD5D;" cx="256.001" cy="256.001" r="161.473"/>
<path d="M256,418.392c-41.605,0-83.209-15.837-114.883-47.509c-34.166-34.166-51.27-81.386-46.926-129.554
	c0.592-6.568,6.378-11.408,12.966-10.821c6.568,0.592,11.414,6.397,10.821,12.966c-3.707,41.093,10.882,81.376,40.028,110.521
	c54.035,54.035,141.954,54.035,195.989,0c54.035-54.034,54.035-141.955,0-195.989c-54.035-54.035-141.954-54.035-195.989,0
	c-4.664,4.662-12.223,4.662-16.889,0c-4.663-4.663-4.663-12.224,0-16.889c63.348-63.346,166.417-63.346,229.766,0
	c63.346,63.347,63.346,166.419,0,229.766C339.209,402.555,297.605,418.392,256,418.392z"/>
<path d="M120.344,202.632c-0.775,0-1.552-0.072-2.327-0.226c-0.765-0.155-1.518-0.382-2.233-0.681
	c-0.718-0.299-1.41-0.669-2.066-1.099c-0.645-0.442-1.266-0.931-1.815-1.493c-2.221-2.221-3.5-5.29-3.5-8.443
	c0-0.775,0.084-1.564,0.239-2.329c0.155-0.764,0.382-1.517,0.681-2.232c0.299-0.718,0.669-1.421,1.099-2.066
	c0.43-0.657,0.931-1.266,1.481-1.815c0.549-0.549,1.169-1.052,1.815-1.481c0.657-0.43,1.349-0.8,2.066-1.099
	s1.468-0.525,2.233-0.681c1.54-0.31,3.127-0.31,4.668,0c0.765,0.155,1.518,0.382,2.233,0.681c0.718,0.299,1.41,0.669,2.066,1.099
	c0.645,0.429,1.266,0.931,1.815,1.481c0.549,0.549,1.051,1.158,1.481,1.815c0.43,0.645,0.8,1.349,1.099,2.066
	c0.299,0.716,0.525,1.468,0.681,2.232c0.155,0.765,0.239,1.554,0.239,2.329c0,3.154-1.278,6.222-3.5,8.443
	c-0.549,0.561-1.169,1.051-1.815,1.493c-0.657,0.43-1.349,0.8-2.066,1.099c-0.716,0.299-1.468,0.525-2.233,0.681
	C121.909,202.562,121.132,202.632,120.344,202.632z"/>
<path d="M314.751,205.471c0,22.015-10.61,35.277-26.259,40.582c19.628,6.631,32.625,22.546,32.625,49.866v3.184
	c0,39.52-28.38,54.639-64.984,54.639s-65.249-15.119-65.249-54.639v-3.184c0-27.32,13.261-43.234,32.889-49.866
	c-15.649-5.304-26.259-18.568-26.259-40.582c0-33.154,24.404-47.213,58.619-47.213S314.751,172.317,314.751,205.471z
	 M279.738,288.228c0-17.241-8.753-25.199-23.606-25.199c-14.854,0-23.872,7.958-23.872,25.199v5.835
	c0,18.301,9.283,26.524,23.872,26.524c15.118,0,23.606-8.753,23.606-26.524V288.228z M237.3,210.776
	c0,13.794,6.896,19.098,18.833,19.098c11.934,0,18.832-5.304,18.832-19.098c0-13.526-6.896-19.362-18.832-19.362
	C244.197,191.413,237.3,197.249,237.3,210.776z"/>
<g>
</g>
<g>
</g>
<g>
</g>
<g>
</g>
<g>
</g>
<g>
</g>
<g>
</g>
<g>
</g>
<g>
</g>
<g>
</g>
<g>
</g>
<g>
</g>
<g>
</g>
<g>
</g>
<g>
</g>
</svg>
